# Blender3D v248 OBJ File: bullet.blend
# www.blender3d.org
v 0.252837 -0.907434 -0.252837
v 0.357566 -0.907434 0.000000
v 0.252837 -0.907434 0.252837
v -0.000000 -0.907434 0.357566
v -0.252837 -0.907434 0.252837
v -0.357566 -0.907434 0.000000
v -0.252837 -0.907434 -0.252837
v -0.000000 -0.907434 -0.357566
v 0.000000 -0.907434 0.000000
v -0.000000 -0.124387 -0.391345
v -0.276723 -0.124387 -0.276723
v -0.391345 -0.124387 0.000000
v -0.276723 -0.124387 0.276723
v -0.000000 -0.124387 0.391345
v 0.276723 -0.124387 0.276723
v 0.391345 -0.124387 0.000000
v 0.276723 -0.124387 -0.276723
v 0.236507 0.272877 -0.236507
v 0.334471 0.272877 0.000000
v 0.236507 0.272877 0.236507
v -0.000000 0.272877 0.334471
v -0.236507 0.272877 0.236507
v -0.334471 0.272877 -0.000000
v -0.236507 0.272877 -0.236507
v -0.000000 0.272877 -0.334471
v -0.000000 0.824940 -0.093475
v -0.066097 0.824940 -0.066097
v -0.093475 0.824940 -0.000000
v -0.066097 0.824940 0.066097
v -0.000000 0.824940 0.093475
v 0.066097 0.824940 0.066097
v 0.093475 0.824940 -0.000000
v 0.066097 0.824940 -0.066097
v 0.000000 0.907434 -0.000000
vt 0.165599 0.816674
vt 0.216820 0.693017
vt 0.289256 0.765454
vt 0.289256 0.867894
vt 0.216820 0.940330
vt 0.114379 0.940330
vt 0.041943 0.867894
vt 0.041943 0.765454
vt 0.114379 0.693017
vt 0.438872 0.685273
vt 0.455838 0.662333
vt 0.499885 0.701446
vt 0.430976 0.720184
vt 0.560546 0.686535
vt 0.566980 0.720184
vt 0.544521 0.663282
vt 0.523575 0.649698
vt 0.500464 0.645009
vt 0.477056 0.649002
vt 0.272894 0.550525
vt 0.350210 0.506178
vt 0.200130 0.620268
vt 0.724657 0.555059
vt 0.806700 0.633244
vt 0.647477 0.508193
vt 0.572864 0.482946
vt 0.499758 0.473397
vt 0.426204 0.480480
vt 0.305479 0.382201
vt 0.403831 0.362279
vt 0.499145 0.354855
vt 0.596244 0.361972
vt 0.694366 0.385074
vt 0.800152 0.421590
vt 0.915554 0.473525
vt 0.086415 0.473316
vt 0.203466 0.418257
vt 0.134104 0.094249
vt 0.256553 0.073624
vt 0.010166 0.120238
vt 0.868095 0.101522
vt 0.989834 0.127017
vt 0.746803 0.076498
vt 0.624820 0.063013
vt 0.502877 0.054098
vt 0.379166 0.055996
vn 0.000000 -1.000000 0.000000
vn 0.561907 -0.605396 -0.563646
vn 0.795892 -0.605396 -0.001221
vn 0.563646 -0.605396 0.561907
vn 0.001221 -0.605396 0.795892
vn -0.561907 -0.605396 0.563646
vn -0.795892 -0.605396 0.001221
vn -0.563646 -0.605396 -0.561907
vn -0.001221 -0.605396 -0.795892
vn 0.818354 0.574694 0.001556
vn 0.579760 0.574694 -0.577532
vn 0.000000 1.000000 0.000000
vn 0.577532 0.574694 0.579760
vn -0.001556 0.574694 0.818354
vn -0.579760 0.574694 0.577532
vn -0.818354 0.574694 -0.001556
vn -0.577532 0.574694 -0.579760
vn 0.001556 0.574694 -0.818354
vn 0.962645 0.270638 0.000092
vn 0.680776 0.270638 -0.680624
vn 0.680624 0.270638 0.680776
vn -0.000092 0.270638 0.962645
vn -0.680776 0.270638 0.680624
vn -0.962645 0.270638 -0.000092
vn -0.680624 0.270638 -0.680776
vn 0.000092 0.270638 -0.962645
vn 0.706229 0.049257 -0.706229
vn 0.000000 0.049257 -0.998779
vn -0.706229 0.049257 -0.706229
vn -0.998779 0.049257 0.000000
vn -0.706229 0.049257 0.706229
vn 0.000000 0.049257 0.998779
vn 0.706229 0.049257 0.706229
vn 0.998779 0.049257 0.000000
usemtl Material_skin.png
s 1
f 9/1/1 1/2/2 2/3/3
f 9/1/1 2/3/3 3/4/4
f 9/1/1 3/4/4 4/5/5
f 9/1/1 4/5/5 5/6/6
f 9/1/1 5/6/6 6/7/7
f 9/1/1 6/7/7 7/8/8
f 9/1/1 7/8/8 8/9/9
f 8/9/9 1/2/2 9/1/1
f 32/10/10 33/11/11 34/12/12
f 31/13/13 32/10/10 34/12/12
f 30/14/14 31/15/13 34/12/12
f 29/16/15 30/14/14 34/12/12
f 28/17/16 29/16/15 34/12/12
f 27/18/17 28/17/16 34/12/12
f 26/19/18 27/18/17 34/12/12
f 33/11/11 26/19/18 34/12/12
f 19/20/19 18/21/20 33/11/11
f 19/20/19 33/11/11 32/10/10
f 20/22/21 19/20/19 32/10/10
f 20/22/21 32/10/10 31/13/13
f 21/23/22 20/24/21 31/15/13
f 21/23/22 31/15/13 30/14/14
f 22/25/23 21/23/22 30/14/14
f 22/25/23 30/14/14 29/16/15
f 23/26/24 22/25/23 29/16/15
f 23/26/24 29/16/15 28/17/16
f 24/27/25 23/26/24 28/17/16
f 24/27/25 28/17/16 27/18/17
f 25/28/26 24/27/25 27/18/17
f 25/28/26 27/18/17 26/19/18
f 18/21/20 25/28/26 26/19/18
f 18/21/20 26/19/18 33/11/11
f 17/29/27 10/30/28 25/28/26
f 17/29/27 25/28/26 18/21/20
f 10/30/28 11/31/29 24/27/25
f 10/30/28 24/27/25 25/28/26
f 11/31/29 12/32/30 23/26/24
f 11/31/29 23/26/24 24/27/25
f 12/32/30 13/33/31 22/25/23
f 12/32/30 22/25/23 23/26/24
f 13/33/31 14/34/32 21/23/22
f 13/33/31 21/23/22 22/25/23
f 14/34/32 15/35/33 20/24/21
f 14/34/32 20/24/21 21/23/22
f 15/36/33 16/37/34 19/20/19
f 15/36/33 19/20/19 20/22/21
f 16/37/34 17/29/27 18/21/20
f 16/37/34 18/21/20 19/20/19
f 2/38/3 1/39/2 17/29/27
f 2/38/3 17/29/27 16/37/34
f 3/40/4 2/38/3 16/37/34
f 3/40/4 16/37/34 15/36/33
f 4/41/5 3/42/4 15/35/33
f 4/41/5 15/35/33 14/34/32
f 5/43/6 4/41/5 14/34/32
f 5/43/6 14/34/32 13/33/31
f 6/44/7 5/43/6 13/33/31
f 6/44/7 13/33/31 12/32/30
f 7/45/8 6/44/7 12/32/30
f 7/45/8 12/32/30 11/31/29
f 8/46/9 7/45/8 11/31/29
f 8/46/9 11/31/29 10/30/28
f 1/39/2 8/46/9 10/30/28
f 1/39/2 10/30/28 17/29/27
